<?xml version="1.0" encoding="UTF-8" standalone="no"?>
<!DOCTYPE svg PUBLIC "-//W3C//DTD SVG 1.1//EN"
 "http://www.w3.org/Graphics/SVG/1.1/DTD/svg11.dtd">
<!-- Generated by graphviz version 2.43.0 (0)
 -->
<!-- Title: java.se Pages: 1 -->
<svg width="1806pt" height="385pt"
 viewBox="0.00 0.00 1806.04 385.00" xmlns="http://www.w3.org/2000/svg" xmlns:xlink="http://www.w3.org/1999/xlink">
<g id="graph0" class="graph" transform="scale(1 1) rotate(0) translate(4 381)">
<title>java.se</title>
<polygon fill="white" stroke="transparent" points="-4,4 -4,-381 1802.04,-381 1802.04,4 -4,4"/>
<!-- java.logging -->
<g id="node1" class="node">
<title>java.logging</title>
<text text-anchor="middle" x="258.54" y="-101.4" font-family="DejaVuSans" font-size="12.00" fill="#e76f00">java.logging</text>
</g>
<!-- java.base -->
<g id="node10" class="node">
<title>java.base</title>
<text text-anchor="middle" x="529.54" y="-17.4" font-family="DejaVuSans" font-size="12.00" fill="#e76f00">java.base</text>
</g>
<!-- java.logging&#45;&gt;java.base -->
<g id="edge6" class="edge">
<title>java.logging&#45;&gt;java.base</title>
<path fill="none" stroke="#999999" stroke-width="2" d="M309.2,-88.17C356.92,-73.73 428.15,-52.18 476.61,-37.52"/>
<polygon fill="#999999" stroke="#999999" stroke-width="2" points="486.28,-34.59 478.02,-41.79 481.64,-36.52 476.86,-37.96 476.71,-37.49 476.57,-37.01 481.35,-35.56 475.41,-33.18 486.28,-34.59 486.28,-34.59"/>
</g>
<!-- java.scripting -->
<g id="node2" class="node">
<title>java.scripting</title>
<text text-anchor="middle" x="399.54" y="-101.4" font-family="DejaVuSans" font-size="12.00" fill="#e76f00">java.scripting</text>
</g>
<!-- java.scripting&#45;&gt;java.base -->
<g id="edge14" class="edge">
<title>java.scripting&#45;&gt;java.base</title>
<path fill="none" stroke="#999999" stroke-width="2" d="M430.68,-83.86C448.32,-72.73 470.57,-58.7 489.5,-46.76"/>
<polygon fill="#999999" stroke="#999999" stroke-width="2" points="498.21,-41.26 492.15,-50.41 494.24,-44.36 490.02,-47.02 489.75,-46.6 489.48,-46.18 493.71,-43.51 487.35,-42.79 498.21,-41.26 498.21,-41.26"/>
</g>
<!-- java.xml -->
<g id="node3" class="node">
<title>java.xml</title>
<text text-anchor="middle" x="529.54" y="-101.4" font-family="DejaVuSans" font-size="12.00" fill="#e76f00">java.xml</text>
</g>
<!-- java.xml&#45;&gt;java.base -->
<g id="edge34" class="edge">
<title>java.xml&#45;&gt;java.base</title>
<path fill="none" stroke="#999999" stroke-width="2" d="M529.54,-83.65C529.54,-73.98 529.54,-62.15 529.54,-51.42"/>
<polygon fill="#999999" stroke="#999999" stroke-width="2" points="529.54,-41.17 534.04,-51.17 530.04,-46.17 530.04,-51.17 529.54,-51.17 529.04,-51.17 529.04,-46.17 525.04,-51.17 529.54,-41.17 529.54,-41.17"/>
</g>
<!-- java.sql -->
<g id="node4" class="node">
<title>java.sql</title>
<text text-anchor="middle" x="529.54" y="-185.4" font-family="DejaVuSans" font-size="12.00" fill="#e76f00">java.sql</text>
</g>
<!-- java.sql&#45;&gt;java.logging -->
<g id="edge29" class="edge">
<title>java.sql&#45;&gt;java.logging</title>
<path fill="none" stroke="#999999" stroke-width="2" d="M492.43,-176.27C447.8,-162.77 372.29,-139.92 319.16,-123.84"/>
<polygon fill="#999999" stroke="#999999" stroke-width="2" points="309.52,-120.92 320.39,-119.51 314.45,-121.89 319.23,-123.34 319.09,-123.82 318.94,-124.3 314.16,-122.85 317.78,-128.13 309.52,-120.92 309.52,-120.92"/>
</g>
<!-- java.sql&#45;&gt;java.xml -->
<g id="edge30" class="edge">
<title>java.sql&#45;&gt;java.xml</title>
<path fill="none" stroke="#999999" stroke-width="2" d="M529.54,-167.65C529.54,-157.98 529.54,-146.15 529.54,-135.42"/>
<polygon fill="#999999" stroke="#999999" stroke-width="2" points="529.54,-125.17 534.04,-135.17 530.04,-130.17 530.04,-135.17 529.54,-135.17 529.04,-135.17 529.04,-130.17 525.04,-135.17 529.54,-125.17 529.54,-125.17"/>
</g>
<!-- java.transaction.xa -->
<g id="node5" class="node">
<title>java.transaction.xa</title>
<text text-anchor="middle" x="100.54" y="-101.4" font-family="DejaVuSans" font-size="12.00" fill="#e76f00">java.transaction.xa</text>
</g>
<!-- java.sql&#45;&gt;java.transaction.xa -->
<g id="edge28" class="edge">
<title>java.sql&#45;&gt;java.transaction.xa</title>
<path fill="none" stroke="#999999" stroke-width="2" d="M492.48,-181.11C429.92,-170.23 299.42,-147.13 189.54,-125 187.19,-124.53 184.8,-124.04 182.39,-123.54"/>
<polygon fill="#999999" stroke="#999999" stroke-width="2" points="172.39,-121.46 183.1,-119.09 177.39,-121.99 182.28,-123.01 182.18,-123.5 182.08,-123.99 177.18,-122.97 181.26,-127.91 172.39,-121.46 172.39,-121.46"/>
</g>
<!-- java.transaction.xa&#45;&gt;java.base -->
<g id="edge33" class="edge">
<title>java.transaction.xa&#45;&gt;java.base</title>
<path fill="none" stroke="#999999" stroke-width="2" d="M172.39,-87.54C178.19,-86.32 183.96,-85.12 189.54,-84 290.83,-63.6 409.66,-42.37 476.62,-30.66"/>
<polygon fill="#999999" stroke="#999999" stroke-width="2" points="486.51,-28.93 477.44,-35.08 481.68,-30.28 476.75,-31.14 476.66,-30.65 476.58,-30.16 481.5,-29.3 475.89,-26.21 486.51,-28.93 486.51,-28.93"/>
</g>
<!-- java.compiler -->
<g id="node6" class="node">
<title>java.compiler</title>
<text text-anchor="middle" x="828.54" y="-101.4" font-family="DejaVuSans" font-size="12.00" fill="#e76f00">java.compiler</text>
</g>
<!-- java.compiler&#45;&gt;java.base -->
<g id="edge1" class="edge">
<title>java.compiler&#45;&gt;java.base</title>
<path fill="none" stroke="#999999" stroke-width="2" d="M773.35,-88.36C718.87,-73.42 636.13,-50.73 582.45,-36.01"/>
<polygon fill="#999999" stroke="#999999" stroke-width="2" points="572.78,-33.36 583.61,-31.66 577.73,-34.2 582.56,-35.52 582.42,-36 582.29,-36.48 577.47,-35.16 581.23,-40.34 572.78,-33.36 572.78,-33.36"/>
</g>
<!-- java.instrument -->
<g id="node7" class="node">
<title>java.instrument</title>
<text text-anchor="middle" x="980.54" y="-101.4" font-family="DejaVuSans" font-size="12.00" fill="#e76f00">java.instrument</text>
</g>
<!-- java.instrument&#45;&gt;java.base -->
<g id="edge5" class="edge">
<title>java.instrument&#45;&gt;java.base</title>
<path fill="none" stroke="#999999" stroke-width="2" d="M919.4,-87.93C913.38,-86.54 907.35,-85.2 901.54,-84 788.77,-60.64 655.4,-39.88 582.94,-29.17"/>
<polygon fill="#999999" stroke="#999999" stroke-width="2" points="572.7,-27.67 583.25,-24.67 577.72,-27.9 582.67,-28.63 582.59,-29.12 582.52,-29.62 577.57,-28.89 581.94,-33.58 572.7,-27.67 572.7,-27.67"/>
</g>
<!-- java.desktop -->
<g id="node8" class="node">
<title>java.desktop</title>
<text text-anchor="middle" x="811.54" y="-185.4" font-family="DejaVuSans" font-size="12.00" fill="#e76f00">java.desktop</text>
</g>
<!-- java.desktop&#45;&gt;java.xml -->
<g id="edge3" class="edge">
<title>java.desktop&#45;&gt;java.xml</title>
<path fill="none" stroke="#999999" stroke-width="2" d="M759.27,-173.74C713.73,-161.56 646.01,-142.97 587.54,-125 584.64,-124.11 581.66,-123.17 578.66,-122.21"/>
<polygon fill="#999999" stroke="#999999" stroke-width="2" points="569.08,-119.1 579.98,-117.91 573.99,-120.17 578.74,-121.71 578.59,-122.19 578.43,-122.66 573.68,-121.12 577.2,-126.47 569.08,-119.1 569.08,-119.1"/>
</g>
<!-- java.datatransfer -->
<g id="node11" class="node">
<title>java.datatransfer</title>
<text text-anchor="middle" x="671.54" y="-101.4" font-family="DejaVuSans" font-size="12.00" fill="#e76f00">java.datatransfer</text>
</g>
<!-- java.desktop&#45;&gt;java.datatransfer -->
<g id="edge4" class="edge">
<title>java.desktop&#45;&gt;java.datatransfer</title>
<path fill="none" stroke="#999999" stroke-width="2" d="M778.01,-167.86C758.84,-156.63 734.61,-142.44 714.11,-130.44"/>
<polygon fill="#999999" stroke="#999999" stroke-width="2" points="705.29,-125.26 716.19,-126.44 709.85,-127.36 714.17,-129.89 713.92,-130.32 713.66,-130.75 709.35,-128.22 711.64,-134.2 705.29,-125.26 705.29,-125.26"/>
</g>
<!-- java.management -->
<g id="node9" class="node">
<title>java.management</title>
<text text-anchor="middle" x="1230.54" y="-185.4" font-family="DejaVuSans" font-size="12.00" fill="#e76f00">java.management</text>
</g>
<!-- java.management&#45;&gt;java.base -->
<g id="edge7" class="edge">
<title>java.management&#45;&gt;java.base</title>
<path fill="none" stroke="#999999" stroke-width="2" d="M1212.79,-167.91C1189.45,-143.6 1145.94,-103.01 1099.54,-84 1006.68,-45.94 706.52,-29.06 583.2,-23.61"/>
<polygon fill="#999999" stroke="#999999" stroke-width="2" points="572.88,-23.16 583.06,-19.1 577.89,-22.88 582.89,-23.1 582.87,-23.6 582.84,-24.1 577.85,-23.88 582.67,-28.09 572.88,-23.16 572.88,-23.16"/>
</g>
<!-- java.datatransfer&#45;&gt;java.base -->
<g id="edge2" class="edge">
<title>java.datatransfer&#45;&gt;java.base</title>
<path fill="none" stroke="#999999" stroke-width="2" d="M637.53,-83.86C618,-72.58 593.29,-58.31 572.44,-46.27"/>
<polygon fill="#999999" stroke="#999999" stroke-width="2" points="563.77,-41.26 574.68,-42.37 568.35,-43.33 572.68,-45.83 572.43,-46.27 572.18,-46.7 567.85,-44.2 570.18,-50.16 563.77,-41.26 563.77,-41.26"/>
</g>
<!-- java.management.rmi -->
<g id="node12" class="node">
<title>java.management.rmi</title>
<text text-anchor="middle" x="1159.54" y="-269.4" font-family="DejaVuSans" font-size="12.00" fill="#e76f00">java.management.rmi</text>
</g>
<!-- java.management.rmi&#45;&gt;java.management -->
<g id="edge9" class="edge">
<title>java.management.rmi&#45;&gt;java.management</title>
<path fill="none" stroke="#999999" stroke-width="2" d="M1176.73,-251.65C1185.8,-241.17 1197.07,-228.16 1206.94,-216.76"/>
<polygon fill="#999999" stroke="#999999" stroke-width="2" points="1213.51,-209.17 1210.37,-219.67 1210.62,-213.27 1207.35,-217.05 1206.97,-216.73 1206.59,-216.4 1209.86,-212.62 1203.57,-213.78 1213.51,-209.17 1213.51,-209.17"/>
</g>
<!-- java.rmi -->
<g id="node16" class="node">
<title>java.rmi</title>
<text text-anchor="middle" x="1086.54" y="-185.4" font-family="DejaVuSans" font-size="12.00" fill="#e76f00">java.rmi</text>
</g>
<!-- java.management.rmi&#45;&gt;java.rmi -->
<g id="edge8" class="edge">
<title>java.management.rmi&#45;&gt;java.rmi</title>
<path fill="none" stroke="#999999" stroke-width="2" d="M1141.87,-251.65C1132.55,-241.17 1120.96,-228.16 1110.81,-216.76"/>
<polygon fill="#999999" stroke="#999999" stroke-width="2" points="1104.05,-209.17 1114.06,-213.64 1107.75,-212.57 1111.07,-216.3 1110.7,-216.64 1110.33,-216.97 1107,-213.23 1107.34,-219.63 1104.05,-209.17 1104.05,-209.17"/>
</g>
<!-- java.naming -->
<g id="node13" class="node">
<title>java.naming</title>
<text text-anchor="middle" x="189.54" y="-185.4" font-family="DejaVuSans" font-size="12.00" fill="#e76f00">java.naming</text>
</g>
<!-- java.naming&#45;&gt;java.base -->
<g id="edge10" class="edge">
<title>java.naming&#45;&gt;java.base</title>
<path fill="none" stroke="#999999" stroke-width="2" d="M138.29,-177.91C71.54,-163.26 -31.91,-131.87 10.54,-84 41.11,-49.53 349.67,-30.42 476.02,-23.99"/>
<polygon fill="#999999" stroke="#999999" stroke-width="2" points="486.24,-23.48 476.48,-28.48 481.27,-24.23 476.28,-24.48 476.25,-23.98 476.23,-23.48 481.22,-23.23 476.03,-19.49 486.24,-23.48 486.24,-23.48"/>
</g>
<!-- java.net.http -->
<g id="node14" class="node">
<title>java.net.http</title>
<text text-anchor="middle" x="1387.54" y="-185.4" font-family="DejaVuSans" font-size="12.00" fill="#e76f00">java.net.http</text>
</g>
<!-- java.net.http&#45;&gt;java.base -->
<g id="edge11" class="edge">
<title>java.net.http&#45;&gt;java.base</title>
<path fill="none" stroke="#999999" stroke-width="2" d="M1353.87,-167.86C1310.67,-143.68 1232.68,-103.44 1160.54,-84 952.28,-27.87 693.19,-21.05 583.07,-20.94"/>
<polygon fill="#999999" stroke="#999999" stroke-width="2" points="572.88,-20.95 582.88,-16.44 577.88,-20.44 582.88,-20.44 582.88,-20.94 582.88,-21.44 577.88,-21.44 582.88,-25.44 572.88,-20.95 572.88,-20.95"/>
</g>
<!-- java.prefs -->
<g id="node15" class="node">
<title>java.prefs</title>
<text text-anchor="middle" x="1453.54" y="-101.4" font-family="DejaVuSans" font-size="12.00" fill="#e76f00">java.prefs</text>
</g>
<!-- java.prefs&#45;&gt;java.base -->
<g id="edge12" class="edge">
<title>java.prefs&#45;&gt;java.base</title>
<path fill="none" stroke="#999999" stroke-width="2" d="M1409.94,-94.23C1391.4,-90.57 1369.49,-86.62 1349.54,-84 1061.83,-46.18 714.1,-29.02 583,-23.55"/>
<polygon fill="#999999" stroke="#999999" stroke-width="2" points="572.83,-23.13 583.01,-19.05 577.85,-22.84 582.85,-23.04 582.83,-23.54 582.8,-24.04 577.81,-23.84 582.64,-28.04 572.83,-23.13 572.83,-23.13"/>
</g>
<!-- java.rmi&#45;&gt;java.base -->
<g id="edge13" class="edge">
<title>java.rmi&#45;&gt;java.base</title>
<path fill="none" stroke="#999999" stroke-width="2" d="M1087.51,-167.74C1087.49,-144.03 1083.49,-104.85 1059.54,-84 1024.03,-53.08 710.72,-31.85 583.19,-24.43"/>
<polygon fill="#999999" stroke="#999999" stroke-width="2" points="572.88,-23.83 583.13,-19.91 577.9,-23.62 582.9,-23.91 582.87,-24.41 582.84,-24.91 577.85,-24.62 582.61,-28.9 572.88,-23.83 572.88,-23.83"/>
</g>
<!-- java.se -->
<g id="node17" class="node">
<title>java.se</title>
<text text-anchor="middle" x="529.54" y="-353.4" font-family="DejaVuSans" font-size="12.00" fill="#e76f00">java.se</text>
</g>
<!-- java.se&#45;&gt;java.scripting -->
<g id="edge18" class="edge">
<title>java.se&#45;&gt;java.scripting</title>
<path fill="none" stroke="#999999" stroke-width="2" d="M565.28,-335.94C580.68,-325.43 597.08,-310.92 605.54,-293 629.6,-242.06 622.73,-209.41 584.54,-168 575.9,-158.63 513.5,-138.68 463.53,-123.83"/>
<polygon fill="#999999" stroke="#999999" stroke-width="2" points="453.72,-120.93 464.58,-119.45 458.66,-121.87 463.45,-123.28 463.31,-123.76 463.17,-124.24 458.37,-122.83 462.03,-128.08 453.72,-120.93 453.72,-120.93"/>
</g>
<!-- java.se&#45;&gt;java.compiler -->
<g id="edge17" class="edge">
<title>java.se&#45;&gt;java.compiler</title>
<path fill="none" stroke="#999999" stroke-width="2" d="M565.11,-354.11C643.81,-350.27 829.03,-336.69 870.54,-293 908.96,-252.57 900.75,-220.36 881.54,-168 876.7,-154.8 867.7,-142.48 858.47,-132.33"/>
<polygon fill="#999999" stroke="#999999" stroke-width="2" points="851.44,-125 861.61,-129.1 855.26,-128.26 858.73,-131.87 858.37,-132.22 858,-132.56 854.54,-128.96 855.12,-135.33 851.44,-125 851.44,-125"/>
</g>
<!-- java.se&#45;&gt;java.instrument -->
<g id="edge25" class="edge">
<title>java.se&#45;&gt;java.instrument</title>
<path fill="none" stroke="#999999" stroke-width="2" d="M565.12,-354.16C649.56,-350.28 858.94,-336.43 911.54,-293 959.52,-253.38 974.14,-177.22 978.59,-135.18"/>
<polygon fill="#999999" stroke="#999999" stroke-width="2" points="979.54,-125.03 983.09,-135.4 979.57,-130.05 979.11,-135.03 978.61,-134.99 978.11,-134.94 978.58,-129.96 974.13,-134.57 979.54,-125.03 979.54,-125.03"/>
</g>
<!-- java.se&#45;&gt;java.desktop -->
<g id="edge16" class="edge">
<title>java.se&#45;&gt;java.desktop</title>
<path fill="none" stroke="#999999" stroke-width="2" d="M565.1,-353.74C638.64,-349.26 803.44,-334.72 837.54,-293 854.86,-271.82 843.55,-240.64 830.87,-218.04"/>
<polygon fill="#999999" stroke="#999999" stroke-width="2" points="825.63,-209.24 834.61,-215.53 828.62,-213.28 831.18,-217.57 830.75,-217.83 830.32,-218.09 827.76,-213.79 826.88,-220.13 825.63,-209.24 825.63,-209.24"/>
</g>
<!-- java.se&#45;&gt;java.management.rmi -->
<g id="edge24" class="edge">
<title>java.se&#45;&gt;java.management.rmi</title>
<path fill="none" stroke="#999999" stroke-width="2" d="M565.08,-351.98C649.61,-343.45 869.21,-320.35 1051.54,-293 1057.22,-292.15 1063.05,-291.23 1068.92,-290.27"/>
<polygon fill="#999999" stroke="#999999" stroke-width="2" points="1078.83,-288.61 1069.71,-294.7 1073.98,-289.93 1069.05,-290.75 1068.97,-290.26 1068.89,-289.77 1073.82,-288.94 1068.23,-285.82 1078.83,-288.61 1078.83,-288.61"/>
</g>
<!-- java.se&#45;&gt;java.net.http -->
<g id="edge22" class="edge">
<title>java.se&#45;&gt;java.net.http</title>
<path fill="none" stroke="#999999" stroke-width="2" d="M565.29,-355.15C693.5,-353.47 1129.38,-344.04 1257.54,-293 1299.56,-276.26 1338.87,-241.21 1363.03,-216.55"/>
<polygon fill="#999999" stroke="#999999" stroke-width="2" points="1370.03,-209.26 1366.35,-219.59 1366.93,-213.21 1363.46,-216.82 1363.1,-216.47 1362.74,-216.13 1366.21,-212.52 1359.86,-213.36 1370.03,-209.26 1370.03,-209.26"/>
</g>
<!-- java.se&#45;&gt;java.prefs -->
<g id="edge20" class="edge">
<title>java.se&#45;&gt;java.prefs</title>
<path fill="none" stroke="#999999" stroke-width="2" d="M565.25,-354.85C699.73,-352.06 1175.31,-339.09 1318.54,-293 1387.25,-270.89 1422.08,-271.87 1457.54,-209 1470.2,-186.56 1467.44,-156.81 1462.55,-134.96"/>
<polygon fill="#999999" stroke="#999999" stroke-width="2" points="1460.12,-125.24 1466.91,-133.85 1461.81,-129.97 1463.03,-134.82 1462.54,-134.94 1462.06,-135.06 1460.84,-130.21 1458.17,-136.03 1460.12,-125.24 1460.12,-125.24"/>
</g>
<!-- java.security.jgss -->
<g id="node18" class="node">
<title>java.security.jgss</title>
<text text-anchor="middle" x="1568.54" y="-269.4" font-family="DejaVuSans" font-size="12.00" fill="#e76f00">java.security.jgss</text>
</g>
<!-- java.se&#45;&gt;java.security.jgss -->
<g id="edge15" class="edge">
<title>java.se&#45;&gt;java.security.jgss</title>
<path fill="none" stroke="#999999" stroke-width="2" d="M565.42,-354.98C691.19,-352.75 1123.59,-341.8 1476.54,-293 1482.24,-292.21 1488.11,-291.27 1494,-290.24"/>
<polygon fill="#999999" stroke="#999999" stroke-width="2" points="1503.91,-288.41 1494.89,-294.65 1499.08,-289.81 1494.16,-290.71 1494.07,-290.22 1493.98,-289.73 1498.9,-288.83 1493.26,-285.8 1503.91,-288.41 1503.91,-288.41"/>
</g>
<!-- java.security.sasl -->
<g id="node19" class="node">
<title>java.security.sasl</title>
<text text-anchor="middle" x="1733.54" y="-269.4" font-family="DejaVuSans" font-size="12.00" fill="#e76f00">java.security.sasl</text>
</g>
<!-- java.se&#45;&gt;java.security.sasl -->
<g id="edge23" class="edge">
<title>java.se&#45;&gt;java.security.sasl</title>
<path fill="none" stroke="#999999" stroke-width="2" d="M565.11,-355.77C704.47,-356.37 1226.59,-354.14 1650.54,-293 1653.36,-292.59 1656.22,-292.14 1659.1,-291.64"/>
<polygon fill="#999999" stroke="#999999" stroke-width="2" points="1668.96,-289.83 1659.94,-296.07 1664.13,-291.23 1659.21,-292.13 1659.12,-291.64 1659.03,-291.15 1663.95,-290.24 1658.31,-287.22 1668.96,-289.83 1668.96,-289.83"/>
</g>
<!-- java.sql.rowset -->
<g id="node20" class="node">
<title>java.sql.rowset</title>
<text text-anchor="middle" x="529.54" y="-269.4" font-family="DejaVuSans" font-size="12.00" fill="#e76f00">java.sql.rowset</text>
</g>
<!-- java.se&#45;&gt;java.sql.rowset -->
<g id="edge21" class="edge">
<title>java.se&#45;&gt;java.sql.rowset</title>
<path fill="none" stroke="#999999" stroke-width="2" d="M529.54,-335.65C529.54,-325.98 529.54,-314.15 529.54,-303.42"/>
<polygon fill="#999999" stroke="#999999" stroke-width="2" points="529.54,-293.17 534.04,-303.17 530.04,-298.17 530.04,-303.17 529.54,-303.17 529.04,-303.17 529.04,-298.17 525.04,-303.17 529.54,-293.17 529.54,-293.17"/>
</g>
<!-- java.xml.crypto -->
<g id="node21" class="node">
<title>java.xml.crypto</title>
<text text-anchor="middle" x="759.54" y="-269.4" font-family="DejaVuSans" font-size="12.00" fill="#e76f00">java.xml.crypto</text>
</g>
<!-- java.se&#45;&gt;java.xml.crypto -->
<g id="edge19" class="edge">
<title>java.se&#45;&gt;java.xml.crypto</title>
<path fill="none" stroke="#999999" stroke-width="2" d="M565.23,-342.78C599.76,-330.47 652.9,-311.52 694.88,-296.55"/>
<polygon fill="#999999" stroke="#999999" stroke-width="2" points="704.47,-293.13 696.57,-300.73 699.93,-295.28 695.22,-296.96 695.05,-296.49 694.89,-296.02 699.6,-294.34 693.54,-292.25 704.47,-293.13 704.47,-293.13"/>
</g>
<!-- java.security.jgss&#45;&gt;java.base -->
<g id="edge26" class="edge">
<title>java.security.jgss&#45;&gt;java.base</title>
<path fill="none" stroke="#999999" stroke-width="2" d="M1569.57,-251.98C1570.44,-212.96 1566.17,-125.48 1514.54,-84 1441.71,-25.48 777.97,-21.31 583.1,-21.36"/>
<polygon fill="#999999" stroke="#999999" stroke-width="2" points="572.82,-21.36 582.82,-16.86 577.82,-20.86 582.82,-20.86 582.82,-21.36 582.82,-21.86 577.82,-21.86 582.83,-25.86 572.82,-21.36 572.82,-21.36"/>
</g>
<!-- java.security.sasl&#45;&gt;java.base -->
<g id="edge27" class="edge">
<title>java.security.sasl&#45;&gt;java.base</title>
<path fill="none" stroke="#999999" stroke-width="2" d="M1722.4,-251.87C1698.44,-211.8 1637.69,-121.29 1558.54,-84 1469.96,-42.27 780.91,-26.21 582.71,-22.43"/>
<polygon fill="#999999" stroke="#999999" stroke-width="2" points="572.55,-22.24 582.63,-17.93 577.55,-21.83 582.55,-21.93 582.54,-22.43 582.53,-22.93 577.54,-22.83 582.46,-26.93 572.55,-22.24 572.55,-22.24"/>
</g>
<!-- java.sql.rowset&#45;&gt;java.sql -->
<g id="edge31" class="edge">
<title>java.sql.rowset&#45;&gt;java.sql</title>
<path fill="none" stroke="#999999" stroke-width="2" d="M529.54,-251.65C529.54,-241.98 529.54,-230.15 529.54,-219.42"/>
<polygon fill="#999999" stroke="#999999" stroke-width="2" points="529.54,-209.17 534.04,-219.17 530.04,-214.17 530.04,-219.17 529.54,-219.17 529.04,-219.17 529.04,-214.17 525.04,-219.17 529.54,-209.17 529.54,-209.17"/>
</g>
<!-- java.sql.rowset&#45;&gt;java.naming -->
<g id="edge32" class="edge">
<title>java.sql.rowset&#45;&gt;java.naming</title>
<path fill="none" stroke="#999999" stroke-width="2" d="M470.71,-257.31C409.22,-242.48 313.19,-219.32 250.81,-204.28"/>
<polygon fill="#999999" stroke="#999999" stroke-width="2" points="240.72,-201.84 251.5,-199.81 245.7,-202.53 250.56,-203.7 250.44,-204.19 250.33,-204.67 245.46,-203.5 249.39,-208.56 240.72,-201.84 240.72,-201.84"/>
</g>
<!-- java.xml.crypto&#45;&gt;java.xml -->
<g id="edge35" class="edge">
<title>java.xml.crypto&#45;&gt;java.xml</title>
<path fill="none" stroke="#999999" stroke-width="2" d="M744.07,-251.96C725.57,-229.53 692.76,-192.66 658.54,-168 634.01,-150.33 603.72,-135.35 578.65,-124.5"/>
<polygon fill="#999999" stroke="#999999" stroke-width="2" points="569.32,-120.54 580.28,-120.3 574.12,-122.03 578.72,-123.98 578.53,-124.44 578.33,-124.9 573.73,-122.95 576.77,-128.59 569.32,-120.54 569.32,-120.54"/>
</g>
</g>
</svg>
