<?xml version="1.0" encoding="UTF-8" standalone="no"?>
<!DOCTYPE svg PUBLIC "-//W3C//DTD SVG 1.1//EN"
 "http://www.w3.org/Graphics/SVG/1.1/DTD/svg11.dtd">
<!-- Generated by graphviz version 2.43.0 (0)
 -->
<!-- Title: java.management.rmi Pages: 1 -->
<svg width="260pt" height="217pt"
 viewBox="0.00 0.00 259.50 217.00" xmlns="http://www.w3.org/2000/svg" xmlns:xlink="http://www.w3.org/1999/xlink">
<g id="graph0" class="graph" transform="scale(1 1) rotate(0) translate(4 213)">
<title>java.management.rmi</title>
<polygon fill="white" stroke="transparent" points="-4,4 -4,-213 255.5,-213 255.5,4 -4,4"/>
<!-- java.management -->
<g id="node1" class="node">
<title>java.management</title>
<text text-anchor="middle" x="69" y="-101.4" font-family="DejaVuSans" font-size="12.00" fill="#e76f00">java.management</text>
</g>
<!-- java.base -->
<g id="node2" class="node">
<title>java.base</title>
<text text-anchor="middle" x="141" y="-17.4" font-family="DejaVuSans" font-size="12.00" fill="#e76f00">java.base</text>
</g>
<!-- java.management&#45;&gt;java.base -->
<g id="edge1" class="edge">
<title>java.management&#45;&gt;java.base</title>
<path fill="none" stroke="#999999" stroke-width="2" d="M86.43,-83.65C95.63,-73.17 107.05,-60.16 117.07,-48.76"/>
<polygon fill="#999999" stroke="#999999" stroke-width="2" points="123.73,-41.17 120.51,-51.65 120.81,-45.25 117.51,-49.01 117.13,-48.68 116.76,-48.35 120.06,-44.59 113.75,-45.71 123.73,-41.17 123.73,-41.17"/>
</g>
<!-- java.management.rmi -->
<g id="node3" class="node">
<title>java.management.rmi</title>
<text text-anchor="middle" x="141" y="-185.4" font-family="DejaVuSans" font-size="12.00" fill="#e76f00">java.management.rmi</text>
</g>
<!-- java.management.rmi&#45;&gt;java.management -->
<g id="edge3" class="edge">
<title>java.management.rmi&#45;&gt;java.management</title>
<path fill="none" stroke="#999999" stroke-width="2" d="M123.57,-167.65C114.37,-157.17 102.95,-144.16 92.93,-132.76"/>
<polygon fill="#999999" stroke="#999999" stroke-width="2" points="86.27,-125.17 96.25,-129.71 89.94,-128.59 93.24,-132.35 92.87,-132.68 92.49,-133.01 89.19,-129.25 89.49,-135.65 86.27,-125.17 86.27,-125.17"/>
</g>
<!-- java.rmi -->
<g id="node4" class="node">
<title>java.rmi</title>
<text text-anchor="middle" x="213" y="-101.4" font-family="DejaVuSans" font-size="12.00" fill="#e76f00">java.rmi</text>
</g>
<!-- java.management.rmi&#45;&gt;java.rmi -->
<g id="edge2" class="edge">
<title>java.management.rmi&#45;&gt;java.rmi</title>
<path fill="none" stroke="#999999" stroke-width="2" d="M158.43,-167.65C167.63,-157.17 179.05,-144.16 189.07,-132.76"/>
<polygon fill="#999999" stroke="#999999" stroke-width="2" points="195.73,-125.17 192.51,-135.65 192.81,-129.25 189.51,-133.01 189.13,-132.68 188.76,-132.35 192.06,-128.59 185.75,-129.71 195.73,-125.17 195.73,-125.17"/>
</g>
<!-- java.rmi&#45;&gt;java.base -->
<g id="edge4" class="edge">
<title>java.rmi&#45;&gt;java.base</title>
<path fill="none" stroke="#999999" stroke-width="2" d="M195.57,-83.65C186.37,-73.17 174.95,-60.16 164.93,-48.76"/>
<polygon fill="#999999" stroke="#999999" stroke-width="2" points="158.27,-41.17 168.25,-45.71 161.94,-44.59 165.24,-48.35 164.87,-48.68 164.49,-49.01 161.19,-45.25 161.49,-51.65 158.27,-41.17 158.27,-41.17"/>
</g>
</g>
</svg>
