<?xml version="1.0" encoding="UTF-8" standalone="no"?>
<!DOCTYPE svg PUBLIC "-//W3C//DTD SVG 1.1//EN"
 "http://www.w3.org/Graphics/SVG/1.1/DTD/svg11.dtd">
<!-- Generated by graphviz version 2.43.0 (0)
 -->
<!-- Title: jdk.management Pages: 1 -->
<svg width="146pt" height="217pt"
 viewBox="0.00 0.00 146.00 217.00" xmlns="http://www.w3.org/2000/svg" xmlns:xlink="http://www.w3.org/1999/xlink">
<g id="graph0" class="graph" transform="scale(1 1) rotate(0) translate(4 213)">
<title>jdk.management</title>
<polygon fill="white" stroke="transparent" points="-4,4 -4,-213 142,-213 142,4 -4,4"/>
<!-- java.management -->
<g id="node1" class="node">
<title>java.management</title>
<text text-anchor="middle" x="69" y="-101.4" font-family="DejaVuSans" font-size="12.00" fill="#e76f00">java.management</text>
</g>
<!-- java.base -->
<g id="node2" class="node">
<title>java.base</title>
<text text-anchor="middle" x="69" y="-17.4" font-family="DejaVuSans" font-size="12.00" fill="#e76f00">java.base</text>
</g>
<!-- java.management&#45;&gt;java.base -->
<g id="edge1" class="edge">
<title>java.management&#45;&gt;java.base</title>
<path fill="none" stroke="#999999" stroke-width="2" d="M69,-83.65C69,-73.98 69,-62.15 69,-51.42"/>
<polygon fill="#999999" stroke="#999999" stroke-width="2" points="69,-41.17 73.5,-51.17 69.5,-46.17 69.5,-51.17 69,-51.17 68.5,-51.17 68.5,-46.17 64.5,-51.17 69,-41.17 69,-41.17"/>
</g>
<!-- jdk.management -->
<g id="node3" class="node">
<title>jdk.management</title>
<text text-anchor="middle" x="69" y="-185.4" font-family="DejaVuSans" font-size="12.00" fill="#437291">jdk.management</text>
</g>
<!-- jdk.management&#45;&gt;java.management -->
<g id="edge2" class="edge">
<title>jdk.management&#45;&gt;java.management</title>
<path fill="none" stroke="#999999" stroke-width="2" d="M69,-167.65C69,-157.98 69,-146.15 69,-135.42"/>
<polygon fill="#999999" stroke="#999999" stroke-width="2" points="69,-125.17 73.5,-135.17 69.5,-130.17 69.5,-135.17 69,-135.17 68.5,-135.17 68.5,-130.17 64.5,-135.17 69,-125.17 69,-125.17"/>
</g>
</g>
</svg>
