<?xml version="1.0" encoding="UTF-8" standalone="no"?>
<!DOCTYPE svg PUBLIC "-//W3C//DTD SVG 1.1//EN"
 "http://www.w3.org/Graphics/SVG/1.1/DTD/svg11.dtd">
<!-- Generated by graphviz version 2.43.0 (0)
 -->
<!-- Title: jdk.xml.dom Pages: 1 -->
<svg width="110pt" height="217pt"
 viewBox="0.00 0.00 110.00 217.00" xmlns="http://www.w3.org/2000/svg" xmlns:xlink="http://www.w3.org/1999/xlink">
<g id="graph0" class="graph" transform="scale(1 1) rotate(0) translate(4 213)">
<title>jdk.xml.dom</title>
<polygon fill="white" stroke="transparent" points="-4,4 -4,-213 106,-213 106,4 -4,4"/>
<!-- java.xml -->
<g id="node1" class="node">
<title>java.xml</title>
<text text-anchor="middle" x="51" y="-101.4" font-family="DejaVuSans" font-size="12.00" fill="#e76f00">java.xml</text>
</g>
<!-- java.base -->
<g id="node2" class="node">
<title>java.base</title>
<text text-anchor="middle" x="51" y="-17.4" font-family="DejaVuSans" font-size="12.00" fill="#e76f00">java.base</text>
</g>
<!-- java.xml&#45;&gt;java.base -->
<g id="edge1" class="edge">
<title>java.xml&#45;&gt;java.base</title>
<path fill="none" stroke="#999999" stroke-width="2" d="M51,-83.65C51,-73.98 51,-62.15 51,-51.42"/>
<polygon fill="#999999" stroke="#999999" stroke-width="2" points="51,-41.17 55.5,-51.17 51.5,-46.17 51.5,-51.17 51,-51.17 50.5,-51.17 50.5,-46.17 46.5,-51.17 51,-41.17 51,-41.17"/>
</g>
<!-- jdk.xml.dom -->
<g id="node3" class="node">
<title>jdk.xml.dom</title>
<text text-anchor="middle" x="51" y="-185.4" font-family="DejaVuSans" font-size="12.00" fill="#437291">jdk.xml.dom</text>
</g>
<!-- jdk.xml.dom&#45;&gt;java.xml -->
<g id="edge2" class="edge">
<title>jdk.xml.dom&#45;&gt;java.xml</title>
<path fill="none" stroke="#999999" stroke-width="2" d="M51,-167.65C51,-157.98 51,-146.15 51,-135.42"/>
<polygon fill="#999999" stroke="#999999" stroke-width="2" points="51,-125.17 55.5,-135.17 51.5,-130.17 51.5,-135.17 51,-135.17 50.5,-135.17 50.5,-130.17 46.5,-135.17 51,-125.17 51,-125.17"/>
</g>
</g>
</svg>
