<?xml version="1.0" encoding="UTF-8" standalone="no"?>
<!DOCTYPE svg PUBLIC "-//W3C//DTD SVG 1.1//EN"
 "http://www.w3.org/Graphics/SVG/1.1/DTD/svg11.dtd">
<!-- Generated by graphviz version 2.43.0 (0)
 -->
<!-- Title: java.desktop Pages: 1 -->
<svg width="259pt" height="217pt"
 viewBox="0.00 0.00 259.00 217.00" xmlns="http://www.w3.org/2000/svg" xmlns:xlink="http://www.w3.org/1999/xlink">
<g id="graph0" class="graph" transform="scale(1 1) rotate(0) translate(4 213)">
<title>java.desktop</title>
<polygon fill="white" stroke="transparent" points="-4,4 -4,-213 255,-213 255,4 -4,4"/>
<!-- java.xml -->
<g id="node1" class="node">
<title>java.xml</title>
<text text-anchor="middle" x="43" y="-101.4" font-family="DejaVuSans" font-size="12.00" fill="#e76f00">java.xml</text>
</g>
<!-- java.base -->
<g id="node3" class="node">
<title>java.base</title>
<text text-anchor="middle" x="43" y="-17.4" font-family="DejaVuSans" font-size="12.00" fill="#e76f00">java.base</text>
</g>
<!-- java.xml&#45;&gt;java.base -->
<g id="edge4" class="edge">
<title>java.xml&#45;&gt;java.base</title>
<path fill="none" stroke="#999999" stroke-width="2" d="M43,-83.65C43,-73.98 43,-62.15 43,-51.42"/>
<polygon fill="#999999" stroke="#999999" stroke-width="2" points="43,-41.17 47.5,-51.17 43.5,-46.17 43.5,-51.17 43,-51.17 42.5,-51.17 42.5,-46.17 38.5,-51.17 43,-41.17 43,-41.17"/>
</g>
<!-- java.desktop -->
<g id="node2" class="node">
<title>java.desktop</title>
<text text-anchor="middle" x="114" y="-185.4" font-family="DejaVuSans" font-size="12.00" fill="#e76f00">java.desktop</text>
</g>
<!-- java.desktop&#45;&gt;java.xml -->
<g id="edge2" class="edge">
<title>java.desktop&#45;&gt;java.xml</title>
<path fill="none" stroke="#999999" stroke-width="2" d="M96.81,-167.65C87.74,-157.17 76.48,-144.16 66.6,-132.76"/>
<polygon fill="#999999" stroke="#999999" stroke-width="2" points="60.03,-125.17 69.98,-129.78 63.68,-128.62 66.95,-132.4 66.57,-132.73 66.2,-133.05 62.92,-129.27 63.17,-135.67 60.03,-125.17 60.03,-125.17"/>
</g>
<!-- java.datatransfer -->
<g id="node4" class="node">
<title>java.datatransfer</title>
<text text-anchor="middle" x="185" y="-101.4" font-family="DejaVuSans" font-size="12.00" fill="#e76f00">java.datatransfer</text>
</g>
<!-- java.desktop&#45;&gt;java.datatransfer -->
<g id="edge3" class="edge">
<title>java.desktop&#45;&gt;java.datatransfer</title>
<path fill="none" stroke="#999999" stroke-width="2" d="M131.19,-167.65C140.26,-157.17 151.52,-144.16 161.4,-132.76"/>
<polygon fill="#999999" stroke="#999999" stroke-width="2" points="167.97,-125.17 164.83,-135.67 165.08,-129.27 161.8,-133.05 161.43,-132.73 161.05,-132.4 164.32,-128.62 158.02,-129.78 167.97,-125.17 167.97,-125.17"/>
</g>
<!-- java.datatransfer&#45;&gt;java.base -->
<g id="edge1" class="edge">
<title>java.datatransfer&#45;&gt;java.base</title>
<path fill="none" stroke="#999999" stroke-width="2" d="M150.99,-83.86C131.46,-72.58 106.75,-58.31 85.9,-46.27"/>
<polygon fill="#999999" stroke="#999999" stroke-width="2" points="77.23,-41.26 88.14,-42.37 81.81,-43.33 86.14,-45.83 85.89,-46.27 85.64,-46.7 81.31,-44.2 83.64,-50.16 77.23,-41.26 77.23,-41.26"/>
</g>
</g>
</svg>
