<?xml version="1.0" encoding="UTF-8" standalone="no"?>
<!DOCTYPE svg PUBLIC "-//W3C//DTD SVG 1.1//EN"
 "http://www.w3.org/Graphics/SVG/1.1/DTD/svg11.dtd">
<!-- Generated by graphviz version 2.43.0 (0)
 -->
<!-- Title: java.xml.crypto Pages: 1 -->
<svg width="129pt" height="217pt"
 viewBox="0.00 0.00 129.00 217.00" xmlns="http://www.w3.org/2000/svg" xmlns:xlink="http://www.w3.org/1999/xlink">
<g id="graph0" class="graph" transform="scale(1 1) rotate(0) translate(4 213)">
<title>java.xml.crypto</title>
<polygon fill="white" stroke="transparent" points="-4,4 -4,-213 125,-213 125,4 -4,4"/>
<!-- java.xml -->
<g id="node1" class="node">
<title>java.xml</title>
<text text-anchor="middle" x="60.5" y="-101.4" font-family="DejaVuSans" font-size="12.00" fill="#e76f00">java.xml</text>
</g>
<!-- java.base -->
<g id="node2" class="node">
<title>java.base</title>
<text text-anchor="middle" x="60.5" y="-17.4" font-family="DejaVuSans" font-size="12.00" fill="#e76f00">java.base</text>
</g>
<!-- java.xml&#45;&gt;java.base -->
<g id="edge1" class="edge">
<title>java.xml&#45;&gt;java.base</title>
<path fill="none" stroke="#999999" stroke-width="2" d="M60.5,-83.65C60.5,-73.98 60.5,-62.15 60.5,-51.42"/>
<polygon fill="#999999" stroke="#999999" stroke-width="2" points="60.5,-41.17 65,-51.17 61,-46.17 61,-51.17 60.5,-51.17 60,-51.17 60,-46.17 56,-51.17 60.5,-41.17 60.5,-41.17"/>
</g>
<!-- java.xml.crypto -->
<g id="node3" class="node">
<title>java.xml.crypto</title>
<text text-anchor="middle" x="60.5" y="-185.4" font-family="DejaVuSans" font-size="12.00" fill="#e76f00">java.xml.crypto</text>
</g>
<!-- java.xml.crypto&#45;&gt;java.xml -->
<g id="edge2" class="edge">
<title>java.xml.crypto&#45;&gt;java.xml</title>
<path fill="none" stroke="#999999" stroke-width="2" d="M60.5,-167.65C60.5,-157.98 60.5,-146.15 60.5,-135.42"/>
<polygon fill="#999999" stroke="#999999" stroke-width="2" points="60.5,-125.17 65,-135.17 61,-130.17 61,-135.17 60.5,-135.17 60,-135.17 60,-130.17 56,-135.17 60.5,-125.17 60.5,-125.17"/>
</g>
</g>
</svg>
