<?xml version="1.0" encoding="UTF-8" standalone="no"?>
<!DOCTYPE svg PUBLIC "-//W3C//DTD SVG 1.1//EN"
 "http://www.w3.org/Graphics/SVG/1.1/DTD/svg11.dtd">
<!-- Generated by graphviz version 2.43.0 (0)
 -->
<!-- Title: jdk.management.jfr Pages: 1 -->
<svg width="287pt" height="217pt"
 viewBox="0.00 0.00 286.50 217.00" xmlns="http://www.w3.org/2000/svg" xmlns:xlink="http://www.w3.org/1999/xlink">
<g id="graph0" class="graph" transform="scale(1 1) rotate(0) translate(4 213)">
<title>jdk.management.jfr</title>
<polygon fill="white" stroke="transparent" points="-4,4 -4,-213 282.5,-213 282.5,4 -4,4"/>
<!-- java.management -->
<g id="node1" class="node">
<title>java.management</title>
<text text-anchor="middle" x="69" y="-101.4" font-family="DejaVuSans" font-size="12.00" fill="#e76f00">java.management</text>
</g>
<!-- java.base -->
<g id="node2" class="node">
<title>java.base</title>
<text text-anchor="middle" x="69" y="-17.4" font-family="DejaVuSans" font-size="12.00" fill="#e76f00">java.base</text>
</g>
<!-- java.management&#45;&gt;java.base -->
<g id="edge1" class="edge">
<title>java.management&#45;&gt;java.base</title>
<path fill="none" stroke="#999999" stroke-width="2" d="M69,-83.65C69,-73.98 69,-62.15 69,-51.42"/>
<polygon fill="#999999" stroke="#999999" stroke-width="2" points="69,-41.17 73.5,-51.17 69.5,-46.17 69.5,-51.17 69,-51.17 68.5,-51.17 68.5,-46.17 64.5,-51.17 69,-41.17 69,-41.17"/>
</g>
<!-- jdk.jfr -->
<g id="node3" class="node">
<title>jdk.jfr</title>
<text text-anchor="middle" x="205" y="-101.4" font-family="DejaVuSans" font-size="12.00" fill="#437291">jdk.jfr</text>
</g>
<!-- jdk.jfr&#45;&gt;java.base -->
<g id="edge2" class="edge">
<title>jdk.jfr&#45;&gt;java.base</title>
<path fill="none" stroke="#999999" stroke-width="2" d="M173.8,-84.69C154.94,-73.32 130.69,-58.69 110.26,-46.38"/>
<polygon fill="#999999" stroke="#999999" stroke-width="2" points="101.48,-41.08 112.36,-42.39 106.02,-43.23 110.3,-45.82 110.04,-46.24 109.78,-46.67 105.5,-44.09 107.72,-50.1 101.48,-41.08 101.48,-41.08"/>
</g>
<!-- jdk.management.jfr -->
<g id="node4" class="node">
<title>jdk.management.jfr</title>
<text text-anchor="middle" x="205" y="-185.4" font-family="DejaVuSans" font-size="12.00" fill="#437291">jdk.management.jfr</text>
</g>
<!-- jdk.management.jfr&#45;&gt;java.management -->
<g id="edge3" class="edge">
<title>jdk.management.jfr&#45;&gt;java.management</title>
<path fill="none" stroke="#999999" stroke-width="2" d="M172.42,-167.86C153.81,-156.63 130.27,-142.44 110.36,-130.44"/>
<polygon fill="#999999" stroke="#999999" stroke-width="2" points="101.78,-125.26 112.67,-126.57 106.32,-127.42 110.6,-130 110.34,-130.43 110.09,-130.86 105.8,-128.27 108.02,-134.28 101.78,-125.26 101.78,-125.26"/>
</g>
<!-- jdk.management.jfr&#45;&gt;jdk.jfr -->
<g id="edge4" class="edge">
<title>jdk.management.jfr&#45;&gt;jdk.jfr</title>
<path fill="none" stroke="#999999" stroke-width="2" d="M205,-167.65C205,-157.98 205,-146.15 205,-135.42"/>
<polygon fill="#999999" stroke="#999999" stroke-width="2" points="205,-125.17 209.5,-135.17 205.5,-130.17 205.5,-135.17 205,-135.17 204.5,-135.17 204.5,-130.17 200.5,-135.17 205,-125.17 205,-125.17"/>
</g>
</g>
</svg>
