<?xml version="1.0" encoding="UTF-8" standalone="no"?>
<!DOCTYPE svg PUBLIC "-//W3C//DTD SVG 1.1//EN"
 "http://www.w3.org/Graphics/SVG/1.1/DTD/svg11.dtd">
<!-- Generated by graphviz version 2.43.0 (0)
 -->
<!-- Title: jdk.jshell Pages: 1 -->
<svg width="349pt" height="217pt"
 viewBox="0.00 0.00 349.00 217.00" xmlns="http://www.w3.org/2000/svg" xmlns:xlink="http://www.w3.org/1999/xlink">
<g id="graph0" class="graph" transform="scale(1 1) rotate(0) translate(4 213)">
<title>jdk.jshell</title>
<polygon fill="white" stroke="transparent" points="-4,4 -4,-213 345,-213 345,4 -4,4"/>
<!-- java.compiler -->
<g id="node1" class="node">
<title>java.compiler</title>
<text text-anchor="middle" x="55" y="-101.4" font-family="DejaVuSans" font-size="12.00" fill="#e76f00">java.compiler</text>
</g>
<!-- java.base -->
<g id="node2" class="node">
<title>java.base</title>
<text text-anchor="middle" x="190" y="-17.4" font-family="DejaVuSans" font-size="12.00" fill="#e76f00">java.base</text>
</g>
<!-- java.compiler&#45;&gt;java.base -->
<g id="edge1" class="edge">
<title>java.compiler&#45;&gt;java.base</title>
<path fill="none" stroke="#999999" stroke-width="2" d="M87.34,-83.86C105.74,-72.68 128.97,-58.57 148.68,-46.6"/>
<polygon fill="#999999" stroke="#999999" stroke-width="2" points="157.46,-41.26 151.25,-50.3 153.45,-44.29 149.17,-46.88 148.91,-46.46 148.65,-46.03 152.93,-43.43 146.58,-42.61 157.46,-41.26 157.46,-41.26"/>
</g>
<!-- java.prefs -->
<g id="node3" class="node">
<title>java.prefs</title>
<text text-anchor="middle" x="190" y="-101.4" font-family="DejaVuSans" font-size="12.00" fill="#e76f00">java.prefs</text>
</g>
<!-- java.prefs&#45;&gt;java.base -->
<g id="edge2" class="edge">
<title>java.prefs&#45;&gt;java.base</title>
<path fill="none" stroke="#999999" stroke-width="2" d="M190,-83.65C190,-73.98 190,-62.15 190,-51.42"/>
<polygon fill="#999999" stroke="#999999" stroke-width="2" points="190,-41.17 194.5,-51.17 190.5,-46.17 190.5,-51.17 190,-51.17 189.5,-51.17 189.5,-46.17 185.5,-51.17 190,-41.17 190,-41.17"/>
</g>
<!-- jdk.jdi -->
<g id="node4" class="node">
<title>jdk.jdi</title>
<text text-anchor="middle" x="301" y="-101.4" font-family="DejaVuSans" font-size="12.00" fill="#437291">jdk.jdi</text>
</g>
<!-- jdk.jdi&#45;&gt;java.base -->
<g id="edge3" class="edge">
<title>jdk.jdi&#45;&gt;java.base</title>
<path fill="none" stroke="#999999" stroke-width="2" d="M274.41,-83.86C259.56,-72.88 240.87,-59.08 224.85,-47.25"/>
<polygon fill="#999999" stroke="#999999" stroke-width="2" points="216.76,-41.26 227.47,-43.59 221.07,-43.83 225.1,-46.8 224.8,-47.21 224.5,-47.61 220.48,-44.64 222.12,-50.83 216.76,-41.26 216.76,-41.26"/>
</g>
<!-- jdk.jshell -->
<g id="node5" class="node">
<title>jdk.jshell</title>
<text text-anchor="middle" x="301" y="-185.4" font-family="DejaVuSans" font-size="12.00" fill="#437291">jdk.jshell</text>
</g>
<!-- jdk.jshell&#45;&gt;java.compiler -->
<g id="edge5" class="edge">
<title>jdk.jshell&#45;&gt;java.compiler</title>
<path fill="none" stroke="#999999" stroke-width="2" d="M260.93,-174.14C222.75,-161.42 164.62,-142.04 119.84,-127.11"/>
<polygon fill="#999999" stroke="#999999" stroke-width="2" points="110.22,-123.91 121.13,-122.8 115.12,-125.01 119.86,-126.59 119.7,-127.07 119.54,-127.54 114.8,-125.96 118.28,-131.34 110.22,-123.91 110.22,-123.91"/>
</g>
<!-- jdk.jshell&#45;&gt;java.prefs -->
<g id="edge6" class="edge">
<title>jdk.jshell&#45;&gt;java.prefs</title>
<path fill="none" stroke="#999999" stroke-width="2" d="M274.41,-167.86C259.56,-156.88 240.87,-143.08 224.85,-131.25"/>
<polygon fill="#999999" stroke="#999999" stroke-width="2" points="216.76,-125.26 227.47,-127.59 221.07,-127.83 225.1,-130.8 224.8,-131.21 224.5,-131.61 220.48,-128.64 222.12,-134.83 216.76,-125.26 216.76,-125.26"/>
</g>
<!-- jdk.jshell&#45;&gt;jdk.jdi -->
<g id="edge4" class="edge">
<title>jdk.jshell&#45;&gt;jdk.jdi</title>
<path fill="none" stroke="#999999" stroke-width="2" d="M301,-167.65C301,-157.98 301,-146.15 301,-135.42"/>
<polygon fill="#999999" stroke="#999999" stroke-width="2" points="301,-125.17 305.5,-135.17 301.5,-130.17 301.5,-135.17 301,-135.17 300.5,-135.17 300.5,-130.17 296.5,-135.17 301,-125.17 301,-125.17"/>
</g>
</g>
</svg>
