<?xml version="1.0" encoding="UTF-8" standalone="no"?>
<!DOCTYPE svg PUBLIC "-//W3C//DTD SVG 1.1//EN"
 "http://www.w3.org/Graphics/SVG/1.1/DTD/svg11.dtd">
<!-- Generated by graphviz version 2.43.0 (0)
 -->
<!-- Title: jdk.jconsole Pages: 1 -->
<svg width="383pt" height="301pt"
 viewBox="0.00 0.00 383.00 301.00" xmlns="http://www.w3.org/2000/svg" xmlns:xlink="http://www.w3.org/1999/xlink">
<g id="graph0" class="graph" transform="scale(1 1) rotate(0) translate(4 297)">
<title>jdk.jconsole</title>
<polygon fill="white" stroke="transparent" points="-4,4 -4,-297 379,-297 379,4 -4,4"/>
<!-- java.xml -->
<g id="node1" class="node">
<title>java.xml</title>
<text text-anchor="middle" x="43" y="-101.4" font-family="DejaVuSans" font-size="12.00" fill="#e76f00">java.xml</text>
</g>
<!-- java.base -->
<g id="node4" class="node">
<title>java.base</title>
<text text-anchor="middle" x="43" y="-17.4" font-family="DejaVuSans" font-size="12.00" fill="#e76f00">java.base</text>
</g>
<!-- java.xml&#45;&gt;java.base -->
<g id="edge5" class="edge">
<title>java.xml&#45;&gt;java.base</title>
<path fill="none" stroke="#999999" stroke-width="2" d="M43,-83.65C43,-73.98 43,-62.15 43,-51.42"/>
<polygon fill="#999999" stroke="#999999" stroke-width="2" points="43,-41.17 47.5,-51.17 43.5,-46.17 43.5,-51.17 43,-51.17 42.5,-51.17 42.5,-46.17 38.5,-51.17 43,-41.17 43,-41.17"/>
</g>
<!-- java.desktop -->
<g id="node2" class="node">
<title>java.desktop</title>
<text text-anchor="middle" x="149" y="-185.4" font-family="DejaVuSans" font-size="12.00" fill="#e76f00">java.desktop</text>
</g>
<!-- java.desktop&#45;&gt;java.xml -->
<g id="edge2" class="edge">
<title>java.desktop&#45;&gt;java.xml</title>
<path fill="none" stroke="#999999" stroke-width="2" d="M123.61,-167.86C109.55,-156.99 91.9,-143.33 76.7,-131.57"/>
<polygon fill="#999999" stroke="#999999" stroke-width="2" points="68.55,-125.26 79.21,-127.82 72.81,-127.93 76.77,-130.99 76.46,-131.38 76.15,-131.78 72.2,-128.72 73.71,-134.94 68.55,-125.26 68.55,-125.26"/>
</g>
<!-- java.datatransfer -->
<g id="node5" class="node">
<title>java.datatransfer</title>
<text text-anchor="middle" x="185" y="-101.4" font-family="DejaVuSans" font-size="12.00" fill="#e76f00">java.datatransfer</text>
</g>
<!-- java.desktop&#45;&gt;java.datatransfer -->
<g id="edge3" class="edge">
<title>java.desktop&#45;&gt;java.datatransfer</title>
<path fill="none" stroke="#999999" stroke-width="2" d="M157.71,-167.65C162.09,-157.68 167.48,-145.41 172.31,-134.41"/>
<polygon fill="#999999" stroke="#999999" stroke-width="2" points="176.37,-125.17 176.47,-136.13 174.81,-129.95 172.8,-134.52 172.35,-134.32 171.89,-134.12 173.9,-129.54 168.23,-132.51 176.37,-125.17 176.37,-125.17"/>
</g>
<!-- java.management -->
<g id="node3" class="node">
<title>java.management</title>
<text text-anchor="middle" x="306" y="-185.4" font-family="DejaVuSans" font-size="12.00" fill="#e76f00">java.management</text>
</g>
<!-- java.management&#45;&gt;java.base -->
<g id="edge4" class="edge">
<title>java.management&#45;&gt;java.base</title>
<path fill="none" stroke="#999999" stroke-width="2" d="M304.33,-167.78C301.28,-144.48 292.77,-106.08 269,-84 221.85,-40.19 146.73,-26.66 96.18,-22.71"/>
<polygon fill="#999999" stroke="#999999" stroke-width="2" points="86.1,-22.02 96.38,-18.21 91.12,-21.86 96.11,-22.2 96.08,-22.7 96.04,-23.2 91.05,-22.86 95.77,-27.19 86.1,-22.02 86.1,-22.02"/>
</g>
<!-- java.datatransfer&#45;&gt;java.base -->
<g id="edge1" class="edge">
<title>java.datatransfer&#45;&gt;java.base</title>
<path fill="none" stroke="#999999" stroke-width="2" d="M150.99,-83.86C131.46,-72.58 106.75,-58.31 85.9,-46.27"/>
<polygon fill="#999999" stroke="#999999" stroke-width="2" points="77.23,-41.26 88.14,-42.37 81.81,-43.33 86.14,-45.83 85.89,-46.27 85.64,-46.7 81.31,-44.2 83.64,-50.16 77.23,-41.26 77.23,-41.26"/>
</g>
<!-- jdk.jconsole -->
<g id="node6" class="node">
<title>jdk.jconsole</title>
<text text-anchor="middle" x="227" y="-269.4" font-family="DejaVuSans" font-size="12.00" fill="#437291">jdk.jconsole</text>
</g>
<!-- jdk.jconsole&#45;&gt;java.desktop -->
<g id="edge6" class="edge">
<title>jdk.jconsole&#45;&gt;java.desktop</title>
<path fill="none" stroke="#999999" stroke-width="2" d="M208.12,-251.65C198.06,-241.07 185.54,-227.91 174.61,-216.43"/>
<polygon fill="#999999" stroke="#999999" stroke-width="2" points="167.71,-209.17 177.86,-213.31 171.52,-212.45 174.96,-216.07 174.6,-216.41 174.24,-216.76 170.79,-213.13 171.34,-219.51 167.71,-209.17 167.71,-209.17"/>
</g>
<!-- jdk.jconsole&#45;&gt;java.management -->
<g id="edge7" class="edge">
<title>jdk.jconsole&#45;&gt;java.management</title>
<path fill="none" stroke="#999999" stroke-width="2" d="M246.12,-251.65C256.31,-241.07 268.99,-227.91 280.06,-216.43"/>
<polygon fill="#999999" stroke="#999999" stroke-width="2" points="287.05,-209.17 283.36,-219.49 283.94,-213.11 280.47,-216.72 280.11,-216.37 279.75,-216.02 283.22,-212.42 276.87,-213.25 287.05,-209.17 287.05,-209.17"/>
</g>
</g>
</svg>
