<?xml version="1.0" encoding="UTF-8" standalone="no"?>
<!DOCTYPE svg PUBLIC "-//W3C//DTD SVG 1.1//EN"
 "http://www.w3.org/Graphics/SVG/1.1/DTD/svg11.dtd">
<!-- Generated by graphviz version 2.43.0 (0)
 -->
<!-- Title: java.sql.rowset Pages: 1 -->
<svg width="435pt" height="301pt"
 viewBox="0.00 0.00 434.50 301.00" xmlns="http://www.w3.org/2000/svg" xmlns:xlink="http://www.w3.org/1999/xlink">
<g id="graph0" class="graph" transform="scale(1 1) rotate(0) translate(4 297)">
<title>java.sql.rowset</title>
<polygon fill="white" stroke="transparent" points="-4,4 -4,-297 430.5,-297 430.5,4 -4,4"/>
<!-- java.logging -->
<g id="node1" class="node">
<title>java.logging</title>
<text text-anchor="middle" x="50.5" y="-101.4" font-family="DejaVuSans" font-size="12.00" fill="#e76f00">java.logging</text>
</g>
<!-- java.base -->
<g id="node5" class="node">
<title>java.base</title>
<text text-anchor="middle" x="176.5" y="-17.4" font-family="DejaVuSans" font-size="12.00" fill="#e76f00">java.base</text>
</g>
<!-- java.logging&#45;&gt;java.base -->
<g id="edge1" class="edge">
<title>java.logging&#45;&gt;java.base</title>
<path fill="none" stroke="#999999" stroke-width="2" d="M80.68,-83.86C97.7,-72.78 119.15,-58.82 137.44,-46.92"/>
<polygon fill="#999999" stroke="#999999" stroke-width="2" points="146.13,-41.26 140.2,-50.49 142.21,-44.41 138.02,-47.14 137.75,-46.72 137.48,-46.3 141.67,-43.57 135.29,-42.95 146.13,-41.26 146.13,-41.26"/>
</g>
<!-- java.xml -->
<g id="node2" class="node">
<title>java.xml</title>
<text text-anchor="middle" x="176.5" y="-101.4" font-family="DejaVuSans" font-size="12.00" fill="#e76f00">java.xml</text>
</g>
<!-- java.xml&#45;&gt;java.base -->
<g id="edge9" class="edge">
<title>java.xml&#45;&gt;java.base</title>
<path fill="none" stroke="#999999" stroke-width="2" d="M176.5,-83.65C176.5,-73.98 176.5,-62.15 176.5,-51.42"/>
<polygon fill="#999999" stroke="#999999" stroke-width="2" points="176.5,-41.17 181,-51.17 177,-46.17 177,-51.17 176.5,-51.17 176,-51.17 176,-46.17 172,-51.17 176.5,-41.17 176.5,-41.17"/>
</g>
<!-- java.sql -->
<g id="node3" class="node">
<title>java.sql</title>
<text text-anchor="middle" x="176.5" y="-185.4" font-family="DejaVuSans" font-size="12.00" fill="#e76f00">java.sql</text>
</g>
<!-- java.sql&#45;&gt;java.logging -->
<g id="edge4" class="edge">
<title>java.sql&#45;&gt;java.logging</title>
<path fill="none" stroke="#999999" stroke-width="2" d="M146.32,-167.86C129.3,-156.78 107.85,-142.82 89.56,-130.92"/>
<polygon fill="#999999" stroke="#999999" stroke-width="2" points="80.87,-125.26 91.71,-126.95 85.33,-127.57 89.52,-130.3 89.25,-130.72 88.98,-131.14 84.79,-128.41 86.8,-134.49 80.87,-125.26 80.87,-125.26"/>
</g>
<!-- java.sql&#45;&gt;java.xml -->
<g id="edge5" class="edge">
<title>java.sql&#45;&gt;java.xml</title>
<path fill="none" stroke="#999999" stroke-width="2" d="M176.5,-167.65C176.5,-157.98 176.5,-146.15 176.5,-135.42"/>
<polygon fill="#999999" stroke="#999999" stroke-width="2" points="176.5,-125.17 181,-135.17 177,-130.17 177,-135.17 176.5,-135.17 176,-135.17 176,-130.17 172,-135.17 176.5,-125.17 176.5,-125.17"/>
</g>
<!-- java.transaction.xa -->
<g id="node4" class="node">
<title>java.transaction.xa</title>
<text text-anchor="middle" x="323.5" y="-101.4" font-family="DejaVuSans" font-size="12.00" fill="#e76f00">java.transaction.xa</text>
</g>
<!-- java.sql&#45;&gt;java.transaction.xa -->
<g id="edge3" class="edge">
<title>java.sql&#45;&gt;java.transaction.xa</title>
<path fill="none" stroke="#999999" stroke-width="2" d="M211.71,-167.86C232,-156.54 257.69,-142.21 279.33,-130.14"/>
<polygon fill="#999999" stroke="#999999" stroke-width="2" points="288.32,-125.12 281.78,-133.92 284.2,-128 279.83,-130.43 279.59,-129.99 279.35,-129.56 283.71,-127.12 277.4,-126.06 288.32,-125.12 288.32,-125.12"/>
</g>
<!-- java.transaction.xa&#45;&gt;java.base -->
<g id="edge8" class="edge">
<title>java.transaction.xa&#45;&gt;java.base</title>
<path fill="none" stroke="#999999" stroke-width="2" d="M288.29,-83.86C268,-72.54 242.31,-58.21 220.67,-46.14"/>
<polygon fill="#999999" stroke="#999999" stroke-width="2" points="211.68,-41.12 222.6,-42.06 216.29,-43.12 220.65,-45.56 220.41,-45.99 220.17,-46.43 215.8,-44 218.22,-49.92 211.68,-41.12 211.68,-41.12"/>
</g>
<!-- java.naming -->
<g id="node6" class="node">
<title>java.naming</title>
<text text-anchor="middle" x="375.5" y="-185.4" font-family="DejaVuSans" font-size="12.00" fill="#e76f00">java.naming</text>
</g>
<!-- java.naming&#45;&gt;java.base -->
<g id="edge2" class="edge">
<title>java.naming&#45;&gt;java.base</title>
<path fill="none" stroke="#999999" stroke-width="2" d="M393.16,-167.85C410.89,-145.65 433.01,-109.32 413.5,-84 391.24,-55.1 292.49,-36.88 229.69,-27.99"/>
<polygon fill="#999999" stroke="#999999" stroke-width="2" points="219.55,-26.6 230.08,-23.5 224.58,-26.78 229.53,-27.47 229.46,-27.96 229.39,-28.46 224.44,-27.77 228.85,-32.42 219.55,-26.6 219.55,-26.6"/>
</g>
<!-- java.sql.rowset -->
<g id="node7" class="node">
<title>java.sql.rowset</title>
<text text-anchor="middle" x="176.5" y="-269.4" font-family="DejaVuSans" font-size="12.00" fill="#e76f00">java.sql.rowset</text>
</g>
<!-- java.sql.rowset&#45;&gt;java.sql -->
<g id="edge6" class="edge">
<title>java.sql.rowset&#45;&gt;java.sql</title>
<path fill="none" stroke="#999999" stroke-width="2" d="M176.5,-251.65C176.5,-241.98 176.5,-230.15 176.5,-219.42"/>
<polygon fill="#999999" stroke="#999999" stroke-width="2" points="176.5,-209.17 181,-219.17 177,-214.17 177,-219.17 176.5,-219.17 176,-219.17 176,-214.17 172,-219.17 176.5,-209.17 176.5,-209.17"/>
</g>
<!-- java.sql.rowset&#45;&gt;java.naming -->
<g id="edge7" class="edge">
<title>java.sql.rowset&#45;&gt;java.naming</title>
<path fill="none" stroke="#999999" stroke-width="2" d="M223.91,-251.96C252.34,-240.25 288.66,-225.28 318.62,-212.94"/>
<polygon fill="#999999" stroke="#999999" stroke-width="2" points="328.11,-209.03 320.57,-217 323.67,-211.4 319.05,-213.3 318.86,-212.84 318.67,-212.38 323.29,-210.47 317.15,-208.68 328.11,-209.03 328.11,-209.03"/>
</g>
</g>
</svg>
