<?xml version="1.0" encoding="UTF-8" standalone="no"?>
<!DOCTYPE svg PUBLIC "-//W3C//DTD SVG 1.1//EN"
 "http://www.w3.org/Graphics/SVG/1.1/DTD/svg11.dtd">
<!-- Generated by graphviz version 2.43.0 (0)
 -->
<!-- Title: jdk.javadoc Pages: 1 -->
<svg width="118pt" height="301pt"
 viewBox="0.00 0.00 118.00 301.00" xmlns="http://www.w3.org/2000/svg" xmlns:xlink="http://www.w3.org/1999/xlink">
<g id="graph0" class="graph" transform="scale(1 1) rotate(0) translate(4 297)">
<title>jdk.javadoc</title>
<polygon fill="white" stroke="transparent" points="-4,4 -4,-297 114,-297 114,4 -4,4"/>
<!-- java.compiler -->
<g id="node1" class="node">
<title>java.compiler</title>
<text text-anchor="middle" x="55" y="-101.4" font-family="DejaVuSans" font-size="12.00" fill="#e76f00">java.compiler</text>
</g>
<!-- java.base -->
<g id="node2" class="node">
<title>java.base</title>
<text text-anchor="middle" x="55" y="-17.4" font-family="DejaVuSans" font-size="12.00" fill="#e76f00">java.base</text>
</g>
<!-- java.compiler&#45;&gt;java.base -->
<g id="edge1" class="edge">
<title>java.compiler&#45;&gt;java.base</title>
<path fill="none" stroke="#999999" stroke-width="2" d="M55,-83.65C55,-73.98 55,-62.15 55,-51.42"/>
<polygon fill="#999999" stroke="#999999" stroke-width="2" points="55,-41.17 59.5,-51.17 55.5,-46.17 55.5,-51.17 55,-51.17 54.5,-51.17 54.5,-46.17 50.5,-51.17 55,-41.17 55,-41.17"/>
</g>
<!-- jdk.compiler -->
<g id="node3" class="node">
<title>jdk.compiler</title>
<text text-anchor="middle" x="55" y="-185.4" font-family="DejaVuSans" font-size="12.00" fill="#437291">jdk.compiler</text>
</g>
<!-- jdk.compiler&#45;&gt;java.compiler -->
<g id="edge2" class="edge">
<title>jdk.compiler&#45;&gt;java.compiler</title>
<path fill="none" stroke="#999999" stroke-width="2" d="M55,-167.65C55,-157.98 55,-146.15 55,-135.42"/>
<polygon fill="#999999" stroke="#999999" stroke-width="2" points="55,-125.17 59.5,-135.17 55.5,-130.17 55.5,-135.17 55,-135.17 54.5,-135.17 54.5,-130.17 50.5,-135.17 55,-125.17 55,-125.17"/>
</g>
<!-- jdk.javadoc -->
<g id="node4" class="node">
<title>jdk.javadoc</title>
<text text-anchor="middle" x="55" y="-269.4" font-family="DejaVuSans" font-size="12.00" fill="#437291">jdk.javadoc</text>
</g>
<!-- jdk.javadoc&#45;&gt;jdk.compiler -->
<g id="edge3" class="edge">
<title>jdk.javadoc&#45;&gt;jdk.compiler</title>
<path fill="none" stroke="#999999" stroke-width="2" d="M55,-251.65C55,-241.98 55,-230.15 55,-219.42"/>
<polygon fill="#999999" stroke="#999999" stroke-width="2" points="55,-209.17 59.5,-219.17 55.5,-214.17 55.5,-219.17 55,-219.17 54.5,-219.17 54.5,-214.17 50.5,-219.17 55,-209.17 55,-209.17"/>
</g>
</g>
</svg>
